<?xml version="1.0" ?><svg viewBox="0 0 24 24" xmlns="http://www.w3.org/2000/svg"><title/><g data-name="briefcase minimalis" id="briefcase_minimalis"><path d="M20,5H17V4a3,3,0,0,0-3-3H10A3,3,0,0,0,7,4V5H4A3,3,0,0,0,1,8V20a3,3,0,0,0,3,3H20a3,3,0,0,0,3-3V8A3,3,0,0,0,20,5ZM9,4a1,1,0,0,1,1-1h4a1,1,0,0,1,1,1V5H9ZM3,8A1,1,0,0,1,4,7H20a1,1,0,0,1,1,1v2a3,3,0,0,1-3,3H6a3,3,0,0,1-3-3ZM20,21H4a1,1,0,0,1-1-1V14a4.92,4.92,0,0,0,3,1c13,0,13.21.33,15-1v6A1,1,0,0,1,20,21Z"/><path d="M11,12h2a1,1,0,0,0,0-2H11A1,1,0,0,0,11,12Z"/></g></svg>